<?xml version="1.0" encoding="utf-8"?>
<!-- Generator: Adobe Illustrator 15.0.0, SVG Export Plug-In . SVG Version: 6.00 Build 0)  -->
<!DOCTYPE svg PUBLIC "-//W3C//DTD SVG 1.1//EN" "http://www.w3.org/Graphics/SVG/1.1/DTD/svg11.dtd">
<svg version="1.1" id="Layer_1" xmlns="http://www.w3.org/2000/svg" xmlns:xlink="http://www.w3.org/1999/xlink" x="0px" y="0px"
	 width="200px" height="33px" viewBox="0 0 200 33" enable-background="new 0 0 200 33" xml:space="preserve">
<g>
	<g>
		<g>
			<path fill="#FFFFFF" d="M67.732,29.966l-0.708-0.227c0.108,0.078,0.207,0.186,0.299,0.33
				C67.459,30.187,67.58,30.063,67.732,29.966L67.732,29.966z"/>
			<polygon fill="#FFFFFF" points="66.365,29.522 66.24,29.483 66.116,29.511 66.365,29.522 			"/>
			<path fill="#FFFFFF" d="M65.066,29.392c0.215,0.084,0.433,0.109,0.65,0.113C65.545,29.417,65.334,29.366,65.066,29.392
				L65.066,29.392z"/>
			<path fill="#FFFFFF" d="M66.031,29.78c-0.054-0.119-0.065-0.232,0.081-0.27h0.004l-0.399-0.006L66.031,29.78L66.031,29.78z"/>
			<path fill="#FFFFFF" d="M66.031,29.78c0.052,0.113,0.147,0.23,0.175,0.297L66.031,29.78L66.031,29.78z"/>
			<path fill="#FFFFFF" d="M65.16,32.007c-0.142,0.047,0.043-0.598-0.238-0.508c-0.62,0.061-1.177,0.248-1.71,0.137
				c-0.275,0.094-0.51-0.719-0.786-0.625c-0.617,0.039-2.256,0.676-1.378,0.787c1.312,0.162,2.188,0.18,3.382,0.305
				c1.014-0.084,1.975-0.104,3.006-0.09c0.277,0.043,0.518,0.162,0.757,0.275l-0.965-0.582
				C66.778,31.394,65.963,32.056,65.16,32.007L65.16,32.007z"/>
			<path fill="#FFFFFF" d="M72.837,31.993c-0.149,0.029-0.444,0.088-0.444,0.088c-0.382-0.643-1.022-0.66-1.652-0.672l0.148,0.402
				c0.339,0.074,0.435-0.09,0.192-0.328c0.536,0.613,1.134,0.883,1.796,1.039C72.902,32.335,72.985,32.144,72.837,31.993
				L72.837,31.993z"/>
			<polygon fill="#FFFFFF" points="73.274,32.599 72.878,32.522 72.872,32.581 73.283,32.616 73.274,32.599 			"/>
			<path opacity="0.4" fill="#FFFFFF" d="M62.267,29.419c-1.679-0.303-3.263-0.574-4.804-0.891
				c-0.137,0.113-0.242,0.254-0.392,0.158c-0.106-0.133-0.216-0.221-0.335-0.283l-0.673-0.121l-0.247,0.023l-0.007,0.002
				c-0.137,0.061-0.112,0.168-0.047,0.275l0.206,0.27l-0.206-0.27l-0.342-0.234c-0.213,0.016-0.43,0.016-0.651-0.053
				c0.261-0.047,0.474-0.021,0.651,0.053l0.396-0.043l0.118-0.045l-1.544-0.289l-0.329,0.014c-0.384,0.039-0.767,0.094-0.969-0.248
				l-0.276-0.043l0.048,0.063l-0.097-0.072l-1.175-0.188l-0.813,0.313c0,0-0.159-0.238-0.239-0.357
				c-0.121,0.158-0.28,0.256-0.462,0.297c0.196,0.217,0.372,0.455,0.54,0.607c0.234,0.359,0.643-0.619,0.902,0.039
				c-0.259-0.658-0.668,0.32-0.902-0.039c-0.167-0.152-0.343-0.391-0.54-0.607c-0.384,0.084-0.855-0.07-1.223-0.412
				c0.5-0.262,0.891,0.041,1.223,0.412c0.182-0.041,0.341-0.139,0.462-0.297c0.08,0.119,0.239,0.357,0.239,0.357l0.813-0.313
				l-2.337-0.365c-5.135-0.805-9.902-0.586-15.149-1.094c-2.856-0.275-5.609-0.676-8.31-1.158
				c-5.418-0.961-10.379-0.139-16.058-1.602c-2.201-0.492-6.242,0.152-8.34,0.557c-2.658,1.455-0.731,4.117-0.604,4.268
				c1.992,2.271,3.06,0.625,6.508,1.844c-2.336-0.66,1.579-1.707,3.788-0.131c3.146,2.463,7.475,0.385,11.348,1.16
				c0.961,0.195,1.985,0.105,3.135,0.191c5.899,1.102,11.806,0.178,18.011,0.453c1.629,0.008,3.083-0.52,4.485-0.791
				c1.018-0.076,2.066,0.354,2.879,0.424c1.281,0.105,2.407-0.047,3.494-0.191c-1.191-0.041-2.076,0.082-3.403,0.068
				c-0.881-0.035,0.687-0.807,1.296-0.945c0.266-0.125,0.585,0.648,0.849,0.52c0.544,0.061,1.072-0.172,1.68-0.291
				c0.267-0.117,0.157,0.547,0.29,0.488c0.809-0.053,1.539-0.832,2.025-0.586l1.025,0.471c0.208,0.072,0.416,0.141,0.644,0.15
				l0.454-0.098c-0.079-0.221-0.081-0.475-0.079-0.73c0.205,0.072,0.476,0.266,0.683,0.338c-0.207-0.072-0.478-0.266-0.683-0.338
				c-0.001,0.256,0,0.51,0.079,0.73c1.108-0.215,2.384-0.375,3.555-0.396l-0.001-0.063c-0.671-0.07-1.291-0.283-1.907-0.785
				c0.27,0.195,0.199,0.371-0.145,0.355l-0.201-0.375c0.625-0.09,1.253-0.178,1.714,0.426c0,0,0.278-0.094,0.422-0.141
				c0.164,0.131,0.112,0.338,0.118,0.52l0.395,0.031C63.048,30.028,62.268,29.419,62.267,29.419L62.267,29.419z"/>
			<path fill="#FFFFFF" d="M55.406,28.327l0.331-0.014l-1.29-0.252C54.639,28.415,55.021,28.372,55.406,28.327L55.406,28.327z"/>
			<path fill="#FFFFFF" d="M82.112,22.942l-0.492-0.088c0.078,0.055,0.152,0.137,0.223,0.262
				C81.942,23.204,82.015,23.065,82.112,22.942L82.112,22.942z"/>
			<polygon fill="#FFFFFF" points="81.165,22.772 81.078,22.757 80.997,22.81 81.165,22.772 			"/>
			<path fill="#FFFFFF" d="M80.288,22.856c0.148,0.053,0.295,0.047,0.441,0.018C80.61,22.81,80.467,22.794,80.288,22.856
				L80.288,22.856z"/>
			<path fill="#FFFFFF" d="M80.956,23.087c-0.044-0.104-0.057-0.209,0.037-0.277h0.004l-0.268,0.064L80.956,23.087L80.956,23.087z"
				/>
			<polygon fill="#FFFFFF" points="80.956,23.087 81.092,23.345 80.956,23.087 			"/>
			<path fill="#FFFFFF" d="M80.497,25.429c-0.092,0.066-0.002-0.6-0.188-0.467c-0.416,0.146-0.782,0.412-1.152,0.377
				c-0.181,0.133-0.38-0.635-0.564-0.496c-0.417,0.156-1.509,0.971-0.907,0.979c0.908-0.029,1.508-0.152,2.323-0.195
				c0.677-0.197,1.346-0.469,2.039-0.625c0.188-0.008,0.357,0.066,0.527,0.131l-0.688-0.395
				C81.563,24.511,81.049,25.331,80.497,25.429L80.497,25.429z"/>
			<path fill="#FFFFFF" d="M85.7,23.856c-0.1,0.059-0.297,0.18-0.296,0.18c-0.301-0.537-0.741-0.418-1.167-0.299l0.129,0.361
				c0.233,0,0.288-0.18,0.106-0.361c0.407,0.48,0.828,0.613,1.289,0.619C85.768,24.175,85.812,23.968,85.7,23.856L85.7,23.856z"/>
			<polygon fill="#FFFFFF" points="86.034,24.345 85.762,24.356 85.762,24.417 86.04,24.364 86.034,24.345 			"/>
			<path opacity="0.6" fill="#FFFFFF" d="M78.41,23.3c-1.143-0.063-2.211-0.199-3.257-0.328c-0.091,0.123-0.159,0.271-0.26,0.186
				c-0.075-0.123-0.151-0.203-0.23-0.258l-0.453-0.064l-0.169,0.041l-0.002,0.004c-0.091,0.07-0.075,0.174-0.027,0.275l0.144,0.254
				l-0.144-0.254l-0.234-0.205c-0.141,0.031-0.29,0.045-0.438-0.004c0.175-0.066,0.319-0.059,0.438,0.004l0.263-0.074l0.08-0.057
				l-1.04-0.168l-0.222,0.039c-0.258,0.072-0.515,0.15-0.651-0.188l-0.186-0.029l0.033,0.061l-0.066-0.066l-0.786-0.131
				l-0.545,0.348c0,0-0.108-0.229-0.162-0.342c-0.081,0.16-0.19,0.268-0.311,0.316c0.129,0.209,0.248,0.436,0.36,0.582
				c0.157,0.346,0.435-0.65,0.606-0.008c-0.172-0.643-0.449,0.354-0.606,0.008c-0.113-0.146-0.231-0.373-0.36-0.582
				c-0.259,0.104-0.575-0.033-0.817-0.375c0.338-0.266,0.599,0.021,0.817,0.375c0.12-0.049,0.229-0.156,0.311-0.316
				c0.054,0.113,0.162,0.342,0.162,0.342l0.545-0.348l-1.565-0.266c-3.415-0.605-6.595-0.676-10.159-1.09
				c-1.93-0.26-3.787-0.576-5.611-1.008c-3.655-0.83-6.966,0.057-10.751-1.539c-1.471-0.553-4.151-0.127-5.666,0.115
				c-1.879,1.313-0.438,4.063-0.37,4.219c1.36,2.32,2.048,0.887,4.363,2.221c-1.563-0.756,1.07-1.627,2.558,0.016
				c2.125,2.525,5.06,0.443,7.656,1.133c0.644,0.174,1.33,0.064,2.102,0.123c3.986,0.939,7.736-0.031,11.948,0.352
				c1.115,0.045,2.128-0.531,3.086-0.824c0.696-0.078,1.412,0.297,1.969,0.326c0.878,0.047,1.647-0.15,2.39-0.391
				c-0.816,0.064-1.419,0.217-2.327,0.262c-0.604,0.006,0.469-0.834,0.88-1c0.181-0.141,0.405,0.619,0.585,0.477
				c0.37,0.021,0.728-0.254,1.142-0.416c0.179-0.137,0.113,0.531,0.206,0.463c0.549-0.113,1.031-0.943,1.363-0.734l0.712,0.354
				c0.144,0.047,0.286,0.092,0.443,0.078l0.307-0.146c-0.062-0.209-0.071-0.465-0.078-0.719c0.142,0.051,0.332,0.215,0.473,0.262
				c-0.141-0.047-0.332-0.211-0.473-0.262c0.007,0.254,0.017,0.51,0.078,0.719c0.743-0.332,1.601-0.619,2.395-0.844l-0.006-0.063
				c-0.455,0.033-0.887-0.064-1.322-0.508c0.191,0.162,0.15,0.344-0.083,0.367l-0.149-0.35c0.419-0.154,0.834-0.311,1.174,0.205
				c0,0,0.185-0.139,0.277-0.207c0.119,0.102,0.094,0.313,0.104,0.492l0.271-0.025C78.965,23.776,78.41,23.3,78.41,23.3L78.41,23.3z
				"/>
			<path fill="#FFFFFF" d="M73.768,22.929l0.223-0.039l-0.872-0.152C73.253,23.075,73.51,23.001,73.768,22.929L73.768,22.929z"/>
			<path fill="#FFFFFF" d="M68.397,14.783l-0.224-0.025c0.039,0.046,0.081,0.118,0.125,0.233
				C68.35,15.067,68.367,14.917,68.397,14.783L68.397,14.783z"/>
			<polygon fill="#FFFFFF" points="67.965,14.729 67.926,14.723 67.896,14.785 67.965,14.729 			"/>
			<path fill="#FFFFFF" d="M67.596,14.932l0.191-0.048C67.728,14.841,67.664,14.845,67.596,14.932L67.596,14.932z"/>
			<path fill="#FFFFFF" d="M67.91,15.067c-0.032-0.099-0.05-0.203-0.016-0.278l0.001-0.004l-0.108,0.099L67.91,15.067L67.91,15.067z
				"/>
			<polygon fill="#FFFFFF" points="67.91,15.067 67.999,15.306 67.91,15.067 			"/>
			<path fill="#FFFFFF" d="M67.986,17.442c-0.029,0.078-0.071-0.592-0.131-0.436c-0.155,0.207-0.271,0.521-0.428,0.54
				c-0.055,0.157-0.237-0.57-0.294-0.415c-0.155,0.209-0.482,1.151-0.236,1.084c0.36-0.141,0.586-0.346,0.914-0.507
				c0.252-0.309,0.497-0.622,0.769-0.881l0.236,0.06l-0.328-0.295C68.326,16.414,68.199,17.276,67.986,17.442L67.986,17.442z"/>
			<path fill="#FFFFFF" d="M70.031,15.128l-0.113,0.23c-0.173-0.479-0.353-0.282-0.525-0.086l0.087,0.332
				c0.1-0.043,0.108-0.231,0.017-0.375c0.215,0.401,0.405,0.457,0.604,0.379C70.085,15.428,70.088,15.218,70.031,15.128
				L70.031,15.128z"/>
			<polygon fill="#FFFFFF" points="70.215,15.551 70.101,15.609 70.102,15.668 70.218,15.567 70.215,15.551 			"/>
			<path fill="#FFFFFF" d="M66.846,15.631c-0.495,0.078-0.968,0.098-1.436,0.082c-0.019,0.134-0.022,0.288-0.078,0.214
				c-0.053-0.112-0.1-0.183-0.143-0.224h-0.203l-0.064,0.065v0.004c-0.024,0.081,0,0.183,0.04,0.277l0.104,0.228l-0.104-0.228
				l-0.136-0.169l-0.186,0.061c0.06-0.092,0.123-0.104,0.186-0.061l0.096-0.112l0.025-0.065l-0.471-0.013l-0.085,0.072
				c-0.096,0.108-0.188,0.216-0.312-0.093l-0.086-0.006l0.025,0.058l-0.041-0.058l-0.362-0.022l-0.159,0.415
				c0,0-0.091-0.208-0.138-0.314c0,0.174-0.024,0.289-0.064,0.352c0.101,0.188,0.2,0.393,0.277,0.521
				c0.138,0.315,0.043-0.691,0.25-0.088c-0.207-0.604-0.112,0.403-0.25,0.088c-0.077-0.128-0.177-0.332-0.277-0.521
				c-0.084,0.139-0.246,0.047-0.427-0.252c0.083-0.305,0.26-0.059,0.427,0.252c0.04-0.063,0.064-0.178,0.064-0.352
				c0.047,0.106,0.138,0.314,0.138,0.314l0.159-0.415L62.896,15.6c-1.596-0.083-2.979,0.313-4.622,0.617
				c-0.899,0.179-1.837,0.145-2.807,0.254c-2.054,0.192-2.846,1.792-5.578,2.225c-1.072,0.182-1.723,2.064-2.086,2.836
				c0.455,1.494,3.461,1.941,3.6,2.041c2.476,0.607,1.444-0.252,3.003-0.104c-0.901,0.018-1.134-1.4,0.598-0.551
				c2.268,1.406,1.387-0.668,2.686-0.582c0.269,0.035,0.405-0.182,0.647-0.27c1.599,0.211,2.437-1.299,4.124-1.506
				c0.413-0.113,0.619-0.852,0.936-1.236c0.251-0.162,0.609,0.107,0.829,0.066c0.348-0.068,0.605-0.354,0.85-0.699
				c-0.306,0.182-0.513,0.402-0.853,0.566c-0.233,0.084,0.007-0.879,0.142-1.096c0.045-0.16,0.281,0.557,0.325,0.395
				c0.148-0.027,0.238-0.352,0.373-0.57c0.047-0.161,0.142,0.506,0.165,0.424c0.195-0.189,0.248-1.076,0.422-0.906l0.345,0.272
				l0.193,0.021l0.101-0.182l-0.14-0.7l0.235,0.199l-0.235-0.199l0.14,0.7c0.253-0.423,0.566-0.813,0.871-1.138l-0.01-0.059
				c-0.188,0.087-0.38,0.048-0.627-0.336c0.104,0.137,0.113,0.323,0.019,0.373l-0.114-0.324c0.153-0.207,0.31-0.414,0.522,0.049
				l0.09-0.236c0.064,0.086,0.081,0.296,0.11,0.475l0.109-0.066C67.146,16.033,66.846,15.631,66.846,15.631L66.846,15.631z"/>
			<path fill="#FFFFFF" d="M64.818,15.861l0.086-0.068l-0.396-0.021C64.627,16.08,64.722,15.971,64.818,15.861L64.818,15.861z"/>
			<path fill="#FFFFFF" d="M77.076,20.722l-0.243-0.072c0.036,0.053,0.072,0.135,0.099,0.258
				C76.977,20.993,77.02,20.849,77.076,20.722L77.076,20.722z"/>
			<polygon fill="#FFFFFF" points="76.607,20.579 76.563,20.565 76.522,20.618 76.607,20.579 			"/>
			<path fill="#FFFFFF" d="M76.172,20.718l0.215-0.029C76.328,20.63,76.259,20.638,76.172,20.718L76.172,20.718z"/>
			<path fill="#FFFFFF" d="M76.496,20.899c-0.021-0.102-0.027-0.211,0.025-0.279l0.001-0.002l-0.135,0.07L76.496,20.899
				L76.496,20.899z"/>
			<polygon fill="#FFFFFF" points="76.496,20.899 76.554,21.153 76.496,20.899 			"/>
			<path fill="#FFFFFF" d="M76.239,23.251c-0.037,0.07,0.011-0.604-0.072-0.451c-0.187,0.193-0.346,0.5-0.505,0.506
				c-0.075,0.152-0.176-0.59-0.255-0.436c-0.185,0.193-0.601,1.105-0.349,1.059c0.372-0.107,0.623-0.299,0.971-0.434
				c0.293-0.283,0.562-0.516,0.885-0.725c0.083-0.018,0.151,0.045,0.221,0.102l-0.275-0.355
				C76.724,22.31,76.459,23.138,76.239,23.251L76.239,23.251z"/>
			<path fill="#FFFFFF" d="M78.785,21.405l-0.18,0.197c-0.065-0.498-0.316-0.348-0.542-0.191l0.017,0.34
				c0.112-0.021,0.167-0.201,0.101-0.359c0.139,0.434,0.321,0.525,0.551,0.494C78.765,21.706,78.822,21.505,78.785,21.405
				L78.785,21.405z"/>
			<polygon fill="#FFFFFF" points="78.869,21.851 78.732,21.886 78.722,21.942 78.869,21.868 78.869,21.851 			"/>
			<path opacity="0.8" fill="#FFFFFF" d="M75.278,21.349c-0.543,0.039-1.051,0.018-1.557-0.033
				c-0.027,0.129-0.042,0.281-0.101,0.203c-0.049-0.113-0.095-0.188-0.138-0.234l-0.22-0.01l-0.07,0.064v0.004
				c-0.033,0.08-0.011,0.184,0.024,0.277l0.1,0.23l-0.1-0.23l-0.133-0.172l-0.203,0.059c0.07-0.09,0.139-0.1,0.203-0.059
				l0.109-0.109l0.03-0.066l-0.504-0.02l-0.098,0.07c-0.107,0.109-0.212,0.215-0.33-0.094L72.2,21.222l0.024,0.057l-0.042-0.057
				l-0.386-0.027l-0.187,0.416c0,0-0.094-0.213-0.141-0.316c-0.002,0.168-0.034,0.289-0.081,0.352
				c0.102,0.186,0.198,0.396,0.277,0.525c0.136,0.316,0.075-0.697,0.272-0.086c-0.197-0.611-0.136,0.402-0.272,0.086
				c-0.079-0.129-0.176-0.34-0.277-0.525c-0.096,0.137-0.267,0.043-0.452-0.26c0.103-0.305,0.283-0.055,0.452,0.26
				c0.047-0.063,0.078-0.184,0.081-0.352c0.047,0.104,0.141,0.316,0.141,0.316l0.187-0.416l-0.78-0.053
				c-1.714-0.107-3.203,0.367-4.94,0.658c-0.947,0.168-1.923,0.18-2.917,0.215c-2.036,0.098-3.038,1.633-5.641,1.404
				c-1.005-0.135-2.027,1.338-2.57,1.893c0,1.516,2.556,3.064,2.674,3.18c2.132,1.383,1.464,0.168,3.069,0.652
				c-0.994-0.203-0.624-1.6,0.918-0.525c2.113,1.654,1.966-0.686,3.321-0.572c0.311,0.027,0.511-0.205,0.814-0.301
				c1.849,0.17,2.892-1.404,4.671-1.625c0.442-0.125,0.697-0.871,1.024-1.242c0.264-0.158,0.627,0.121,0.854,0.084
				c0.359-0.063,0.635-0.346,0.906-0.688c-0.326,0.178-0.546,0.395-0.903,0.555c-0.244,0.078,0.037-0.881,0.189-1.096
				c0.051-0.16,0.269,0.561,0.319,0.4c0.158-0.025,0.264-0.35,0.417-0.568c0.056-0.158,0.122,0.512,0.149,0.43
				c0.211-0.197,0.315-1.066,0.481-0.879l0.337,0.301l0.193,0.039l0.119-0.174l-0.089-0.707l0.225,0.217l-0.225-0.217l0.089,0.707
				c0.289-0.398,0.654-0.762,1.01-1.061l-0.007-0.061c-0.205,0.072-0.398,0.016-0.623-0.387c0.096,0.145,0.085,0.332-0.019,0.373
				l-0.087-0.334c0.179-0.191,0.373-0.387,0.548,0.096l0.121-0.23c0.058,0.092,0.051,0.305,0.06,0.482l0.125-0.057
				C75.553,21.774,75.278,21.349,75.278,21.349L75.278,21.349z"/>
			<path fill="#FFFFFF" d="M73.074,21.429l0.098-0.07l-0.423-0.025C72.859,21.647,72.967,21.538,73.074,21.429L73.074,21.429z"/>
			<path fill="#FFFFFF" d="M51.12,24.378l-0.416-0.168c0.056,0.068,0.104,0.164,0.137,0.297
				C50.91,24.608,51.007,24.483,51.12,24.378L51.12,24.378z"/>
			<polygon fill="#FFFFFF" points="50.317,24.048 50.243,24.021 50.163,24.058 50.317,24.048 			"/>
			<path fill="#FFFFFF" d="M49.525,23.976c0.12,0.078,0.25,0.096,0.385,0.096C49.818,23.989,49.694,23.946,49.525,23.976
				L49.525,23.976z"/>
			<path fill="#FFFFFF" d="M50.065,24.323c-0.016-0.111-0.006-0.219,0.094-0.266h0.004l-0.253,0.014L50.065,24.323L50.065,24.323z"
				/>
			<polygon fill="#FFFFFF" points="50.065,24.323 50.13,24.599 50.065,24.323 			"/>
			<path fill="#FFFFFF" d="M49.174,26.526c-0.093,0.049,0.122-0.586-0.065-0.488c-0.388,0.074-0.753,0.273-1.06,0.176
				c-0.18,0.094-0.203-0.668-0.385-0.557c-0.395,0.105-1.426,0.801-0.929,0.869c0.747,0.049,1.276,0,1.98,0.113
				c0.618-0.086,1.243-0.221,1.887-0.273c0.167,0.021,0.299,0.111,0.431,0.213l-0.514-0.49
				C50.286,25.819,49.664,26.524,49.174,26.526L49.174,26.526z"/>
			<path fill="#FFFFFF" d="M54.051,25.868c-0.099,0.045-0.295,0.133-0.295,0.133c-0.15-0.57-0.557-0.52-0.959-0.467l0.036,0.369
				c0.205,0.037,0.292-0.131,0.17-0.332c0.254,0.527,0.599,0.723,1,0.799C54.048,26.19,54.126,25.995,54.051,25.868L54.051,25.868z"
				/>
			<polygon fill="#FFFFFF" points="54.248,26.401 54.004,26.37 53.994,26.427 54.25,26.421 54.248,26.401 			"/>
			<path opacity="0.8" fill="#FFFFFF" d="M47.774,24.124c-1.011-0.176-1.928-0.5-2.862-0.656c-0.092,0.123-0.161,0.268-0.249,0.182
				c-0.058-0.123-0.122-0.201-0.192-0.256l-0.41-0.072l-0.153,0.041l-0.002,0.002c-0.085,0.07-0.071,0.176-0.032,0.279l0.119,0.254
				l-0.119-0.254l-0.206-0.209c-0.128,0.029-0.259,0.043-0.393-0.01c0.155-0.063,0.286-0.053,0.393,0.01l0.24-0.072l0.075-0.055
				L43.04,23.13l-0.2,0.039c-0.233,0.07-0.458,0.141-0.6-0.197l-0.171-0.014l0.034,0.061l-0.066-0.063l-0.729-0.047l-0.456,0.406
				c0,0-0.124-0.219-0.188-0.326c-0.052,0.172-0.137,0.285-0.238,0.348c0.147,0.191,0.282,0.41,0.398,0.537
				c0.173,0.33,0.309-0.688,0.531-0.066c-0.222-0.621-0.358,0.396-0.531,0.066c-0.116-0.127-0.251-0.346-0.398-0.537
				c-0.208,0.145-0.508,0.055-0.773-0.244c0.261-0.313,0.531-0.066,0.773,0.244c0.102-0.063,0.187-0.176,0.238-0.348
				c0.064,0.107,0.188,0.326,0.188,0.326l0.456-0.406l-1.449-0.066c-3.099,0.076-5.511-0.184-8.714-0.982
				c-1.656-0.434-3.244-0.979-4.79-1.613c-3.13-1.273-6.192-0.777-9.555-2.661c-1.321-0.669-3.88-0.359-5.198-0.185
				c-1.694,1.185-0.539,4.021-0.478,4.181c1.129,2.443,1.814,0.963,3.763,2.447c-1.334-0.855,1.04-1.561,2.199,0.172
				c1.595,2.68,4.271,0.887,6.48,1.887c0.541,0.248,1.156,0.221,1.824,0.369c3.571,1.377,6.587,0.973,11.306,1.375
				c1.234-0.025,2.242-0.771,2.976-1.189c0.595-0.186,1.271,0.074,1.652,0.07c0.653-0.076,1.213-0.291,1.792-0.506
				c-0.635,0.039-1.085,0.205-1.758,0.371c-0.455,0.064,0.267-0.877,0.6-1.09c0.138-0.16,0.351,0.578,0.482,0.451
				c0.29,0.025,0.569-0.25,0.902-0.41c0.15-0.137,0.084,0.531,0.156,0.463c0.431-0.115,0.876-0.943,1.145-0.736l0.555,0.379
				c0.114,0.063,0.228,0.121,0.357,0.125l0.275-0.111l0.021-0.723c0.116,0.064,0.257,0.246,0.37,0.311
				c-0.113-0.064-0.254-0.246-0.37-0.311l-0.021,0.723c0.663-0.254,1.441-0.443,2.173-0.576l0.007-0.061
				c-0.403-0.02-0.756-0.162-1.071-0.652c0.143,0.184,0.078,0.363-0.129,0.355l-0.079-0.361c0.386-0.107,0.791-0.213,0.999,0.332
				c0,0,0.185-0.111,0.28-0.17c0.085,0.115,0.025,0.318,0,0.496l0.24,0.006C48.188,24.653,47.775,24.126,47.774,24.124
				L47.774,24.124z"/>
			<path fill="#FFFFFF" d="M43.662,23.413l0.202-0.037l-0.789-0.158C43.202,23.556,43.427,23.483,43.662,23.413L43.662,23.413z"/>
			<g>
				<path fill="#FFFFFF" d="M33.645,3.099l-0.165-0.36l-0.088,0.284C33.374,3.132,33.508,3.102,33.645,3.099L33.645,3.099z"/>
				<polygon fill="#FFFFFF" points="33.289,2.429 33.25,2.369 33.169,2.355 33.289,2.429 				"/>
				<path fill="#FFFFFF" d="M32.737,2.001l0.237,0.248C32.947,2.144,32.874,2.054,32.737,2.001L32.737,2.001z"/>
				<path fill="#FFFFFF" d="M32.962,2.502c0.046-0.086,0.106-0.158,0.203-0.147h0.004l-0.194-0.106L32.962,2.502L32.962,2.502z"/>
				<polygon fill="#FFFFFF" points="32.962,2.502 32.867,2.727 32.962,2.502 				"/>
				<path fill="#FFFFFF" d="M31.218,3.722c-0.079,0.012,0.389-0.367,0.228-0.353c-0.257-0.074-0.572,0.009-0.722-0.095
					c-0.146,0.056,0.162-0.556,0.004-0.515c-0.285-0.042-1.113,0.498-0.846,0.576c0.383,0.094,0.671,0.173,1.027,0.355
					c0.368,0.079,0.841,0.147,1.187,0.399c0.075,0.082,0.083,0.19,0.095,0.294l0.042-0.497C32.285,3.6,31.501,3.818,31.218,3.722
					L31.218,3.722z"/>
				<path fill="#FFFFFF" d="M34.088,5.862l-0.22-0.175c0.387-0.316,0.236-0.637-0.034-0.868L33.58,5.007
					c0.073,0.148,0.233,0.143,0.337-0.033c-0.31,0.416-0.347,0.701-0.251,1.014C33.827,5.962,34.014,5.96,34.088,5.862L34.088,5.862
					z"/>
				<polygon fill="#FFFFFF" points="33.733,6.173 33.666,5.988 33.614,5.998 33.719,6.179 33.733,6.173 				"/>
				<path fill="#FFFFFF" d="M31.359,1.519c-0.711-0.405-1.403-0.723-2.141-0.917c-0.079,0.108-0.139,0.237-0.204,0.16l-0.147-0.227
					l-0.328-0.066l-0.12,0.037l-0.003,0.002c-0.064,0.06-0.048,0.156-0.013,0.247l0.099,0.229l-0.099-0.229l-0.17-0.188
					c-0.1,0.045-0.201,0.079-0.31,0.053c0.116-0.081,0.223-0.094,0.31-0.053l0.186-0.062l0.057-0.052
					c-0.254-0.07-0.511-0.046-0.77-0.058L27.55,0.46c-0.177,0.1-0.333,0.197-0.508-0.077l-0.138,0.02l0.038,0.044l-0.063-0.039
					l-0.595,0.105l-0.251,0.434c-0.001-0.004-0.154-0.145-0.236-0.214c0.011,0.163-0.011,0.288-0.065,0.373
					c0.172,0.113,0.331,0.251,0.449,0.324c0.211,0.235,0.036-0.644,0.366-0.157c-0.33-0.486-0.155,0.392-0.366,0.157
					c-0.118-0.072-0.277-0.211-0.449-0.324c-0.112,0.183-0.356,0.191-0.685,0.042c0.083-0.336,0.405-0.23,0.685-0.042
					c0.054-0.085,0.076-0.21,0.065-0.373c0.082,0.07,0.235,0.21,0.236,0.214l0.251-0.434c-0.407,0.04-0.774,0.211-1.168,0.365
					c-2.578,1.059-3.927,4-3.418,6.994c0.247,1.65,1.008,3.237,2.249,4.516c2.809,2.515,6.539,1.928,10.351,0.358
					c1.678-0.636,2.969-3.719,2.958-5.288c-0.8-2.141-3.494-0.963-3.63-1.061c-2.248,0.451-1.097,1.192-2.77,1.512
					c1.035-0.324,0.794,1.491-0.775,0.677c-1.683-1.475-1.611,0.203-2.502-0.525c-0.119-0.139-0.269-0.204-0.436-0.298
					c-0.185-0.966-1.211-1.524-0.542-2.62c0.138-0.216-0.092-0.781,0.02-1.257c0.17-0.203,0.526-0.106,0.695-0.144
					c0.27-0.111,0.46-0.363,0.742-0.634c-0.322,0.122-0.502,0.321-0.765,0.518c-0.205,0.09-0.128-0.754,0.042-0.996
					c0.051-0.166,0.301,0.453,0.344,0.33c0.153-0.009,0.268-0.292,0.454-0.487c0.08-0.144,0.076,0.451,0.108,0.389
					c0.213-0.1,0.516-0.851,0.684-0.672c0.125,0.085,0.212,0.24,0.295,0.356l0.195,0.101l0.189-0.103l0.151-0.618l0.19,0.273
					l-0.19-0.273l-0.151,0.618c0.443-0.191,1.049-0.281,1.563-0.171l0.027-0.045c-0.242-0.151-0.439-0.299-0.542-0.77
					C30.71,1.742,30.61,1.877,30.47,1.84l0.033-0.323c0.3-0.023,0.668-0.037,0.631,0.463c0,0,0.163-0.04,0.249-0.056
					c0.018,0.122-0.103,0.267-0.188,0.406l0.16,0.067C31.461,2.1,31.365,1.521,31.359,1.519L31.359,1.519z"/>
				<path fill="#FFFFFF" d="M28.225,0.549l0.157-0.032c-0.209-0.067-0.421-0.028-0.637-0.049
					C27.881,0.748,28.044,0.648,28.225,0.549L28.225,0.549z"/>
			</g>
		</g>
		<g>
			<path fill="#FFFFFF" d="M91.888,14.344h-1.51c-0.064-0.757-0.556-1.202-1.339-1.202c-0.673,0-1.19,0.383-1.19,0.89
				c0,0.365,0.23,0.571,0.966,0.884l0.789,0.303c0.491,0.194,0.798,0.317,0.92,0.378c0.247,0.102,0.48,0.22,0.687,0.369
				c0.222,0.147,0.405,0.319,0.541,0.517c0.247,0.328,0.37,0.788,0.37,1.289c0,1.536-1.131,2.516-2.923,2.516
				c-2.012,0-3.117-1.018-3.191-2.946h1.523c0.097,1.057,0.661,1.584,1.683,1.584c0.771,0,1.298-0.357,1.298-0.871
				c0-0.405-0.281-0.692-0.969-0.987l-1.009-0.415c-1.078-0.452-1.531-0.739-1.839-1.167c-0.282-0.369-0.418-0.822-0.418-1.301
				c0-1.41,1.145-2.394,2.788-2.394c1.192,0,2.161,0.526,2.579,1.413C91.813,13.559,91.848,13.771,91.888,14.344z"/>
			<path fill="#FFFFFF" d="M93.2,14h1.523V17.5c0,1.167,0.247,1.5,1.116,1.5c0.874,0,1.129-0.334,1.129-1.5V14h1.524v3.514
				c0,0.873-0.048,1.179-0.271,1.582c-0.402,0.738-1.253,1.158-2.382,1.158c-1.116,0-1.965-0.41-2.371-1.158
				c-0.219-0.402-0.268-0.709-0.268-1.582V14z"/>
			<path fill="#FFFFFF" d="M99.94,14h2.1c0.92,0,1.448,0.066,1.841,0.234c0.576,0.238,0.908,0.752,0.908,1.392
				c0,0.55-0.208,0.92-0.711,1.201c0.711,0.335,1.004,0.762,1.004,1.448c0,0.82-0.465,1.449-1.276,1.701
				c-0.44,0.127-0.709,0.154-1.827,0.154H99.94V14z M101.389,16.311h0.735c0.92,0,1.117-0.102,1.117-0.542
				c0-0.417-0.222-0.527-1.117-0.527h-0.735V16.311z M101.389,18.89h0.799c1.15,0,1.349-0.1,1.349-0.652
				c0-0.526-0.281-0.689-1.228-0.689h-0.097h-0.823V18.89z"/>
			<path fill="#FFFFFF" d="M110.815,15.805h-1.458c-0.075-0.467-0.385-0.676-0.995-0.676c-0.528,0-0.836,0.188-0.836,0.518
				c0,0.224,0.172,0.378,0.554,0.506l0.66,0.207c1.18,0.367,1.599,0.589,1.881,0.969c0.207,0.268,0.33,0.637,0.33,1.02
				c0,1.189-0.934,1.904-2.466,1.904c-1.729,0-2.689-0.789-2.689-2.197c0-0.035,0-0.09,0-0.151h1.486
				c0.013,0.801,0.343,1.096,1.215,1.096c0.574,0,0.909-0.211,0.909-0.594c0-0.277-0.147-0.414-0.615-0.573l-0.836-0.286
				c-1.103-0.37-1.408-0.536-1.68-0.941c-0.172-0.247-0.273-0.564-0.273-0.898c0-1.126,0.92-1.827,2.371-1.827
				C109.92,13.881,110.779,14.556,110.815,15.805z"/>
			<path fill="#FFFFFF" d="M113.627,16.338h2.358v1.25h-2.358v1.301h2.859v1.24h-4.38V14h4.198v1.242h-2.678V16.338z"/>
			<path fill="#FFFFFF" d="M122.702,16.175h-1.399c-0.173-0.722-0.517-1.046-1.119-1.046c-0.872,0-1.414,0.742-1.414,1.958
				c0,1.188,0.555,1.915,1.462,1.915c0.714,0,1.071-0.418,1.132-1.342h1.411c-0.014,0.862-0.186,1.364-0.639,1.84
				c-0.478,0.52-1.081,0.754-1.904,0.754c-1.816,0-3.007-1.252-3.007-3.158c0-1.929,1.18-3.214,2.959-3.214
				C121.693,13.881,122.565,14.665,122.702,16.175z"/>
			<path fill="#FFFFFF" d="M123.89,14h2.128c1.078,0,1.544,0.066,1.998,0.286c0.639,0.296,1.008,0.942,1.008,1.73
				c0,0.85-0.355,1.385-1.145,1.695l1.439,2.418h-1.73l-1.142-2.236h-1.032v2.236h-1.524V14z M125.414,16.654h0.673
				c1.084,0,1.388-0.157,1.388-0.712c0-0.566-0.279-0.7-1.472-0.7h-0.589V16.654z"/>
			<path fill="#FFFFFF" d="M131.811,16.338h2.355v1.25h-2.355v1.301h2.863v1.24h-4.39V14h4.201v1.242h-2.675V16.338z"/>
			<path fill="#FFFFFF" d="M135.2,14h4.847v1.242h-1.693v4.888h-1.523v-4.888h-1.63V14z"/>
			<path fill="#FFFFFF" d="M141.893,14h1.642l2.263,6.13h-1.672l-0.368-1.221h-2.087l-0.367,1.221h-1.67L141.893,14z
				 M142.025,17.736h1.378l-0.69-2.271L142.025,17.736z"/>
			<path fill="#FFFFFF" d="M146.7,14h2.126c1.082,0,1.548,0.066,2.004,0.286c0.639,0.296,1.006,0.942,1.006,1.73
				c0,0.85-0.359,1.385-1.143,1.695l1.438,2.418h-1.732l-1.141-2.236h-1.034v2.236H146.7V14z M148.224,16.654h0.677
				c1.078,0,1.388-0.157,1.388-0.712c0-0.566-0.281-0.7-1.476-0.7h-0.589V16.654z"/>
			<path fill="#FFFFFF" d="M152.88,13.612l1.557-2.007h1.865l-2.28,2.007H152.88z M154.62,20.13h-1.519V14h1.519V20.13z"/>
			<path fill="#FFFFFF" d="M157.79,14h1.643l2.258,6.13h-1.669l-0.367-1.221h-2.087l-0.368,1.221h-1.668L157.79,14z M157.923,17.736
				h1.378l-0.688-2.271L157.923,17.736z"/>
			<path fill="#FFFFFF" d="M86.333,25.552h1.841c1.008,0,1.522,0.076,2.016,0.309c1.006,0.467,1.594,1.498,1.594,2.779
				c0,1.215-0.563,2.258-1.462,2.684c-0.577,0.283-1.044,0.357-2.391,0.357h-1.598V25.552z M87.857,30.442h0.539
				c0.665,0,0.984-0.074,1.25-0.271c0.38-0.27,0.592-0.82,0.592-1.51c0-0.76-0.212-1.314-0.611-1.607
				c-0.321-0.221-0.542-0.26-1.516-0.26h-0.254V30.442z"/>
			<path fill="#FFFFFF" d="M94.386,27.89h2.358v1.252h-2.358v1.301h2.86v1.238h-4.379v-6.129h4.196v1.242h-2.678V27.89z"/>
			<path fill="#FFFFFF" d="M101.51,23.491h2.033c1.449,0,2.013,0.084,2.566,0.396c0.736,0.414,1.168,1.189,1.168,2.119
				c0,1.068-0.491,1.846-1.449,2.273l1.891,3.4h-1.834l-1.677-3.117h-1.132v3.117h-1.566V23.491z M103.076,27.212h0.578
				c1.522,0,2.025-0.291,2.025-1.205c0-0.418-0.198-0.771-0.527-0.957c-0.332-0.184-0.552-0.209-1.621-0.209h-0.455V27.212z"/>
			<path fill="#FFFFFF" d="M109.964,27.89h2.359v1.252h-2.359v1.301h2.86v1.238h-4.381v-6.129h4.198v1.242h-2.678V27.89z"/>
			<path fill="#FFFFFF" d="M119.035,27.728h-1.399c-0.168-0.723-0.515-1.045-1.114-1.045c-0.873,0-1.412,0.74-1.412,1.957
				c0,1.188,0.552,1.914,1.459,1.914c0.716,0,1.067-0.418,1.129-1.344h1.414c-0.014,0.863-0.184,1.363-0.639,1.842
				c-0.478,0.52-1.08,0.752-1.904,0.752c-1.816,0-3.008-1.25-3.008-3.156c0-1.928,1.181-3.215,2.961-3.215
				C118.029,25.433,118.904,26.218,119.035,27.728z"/>
			<path fill="#FFFFFF" d="M120.202,25.552h1.524v3.5c0,1.168,0.246,1.502,1.115,1.502c0.87,0,1.13-0.334,1.13-1.502v-3.5h1.523
				v3.514c0,0.871-0.049,1.18-0.271,1.58c-0.403,0.74-1.252,1.158-2.382,1.158c-1.115,0-1.965-0.41-2.367-1.158
				c-0.221-0.4-0.272-0.709-0.272-1.58V25.552z"/>
			<path fill="#FFFFFF" d="M126.945,25.552h2.121c1.082,0,1.549,0.066,2.002,0.287c0.639,0.295,1.01,0.941,1.01,1.73
				c0,0.85-0.359,1.383-1.146,1.695l1.44,2.416h-1.736l-1.139-2.234h-1.033v2.234h-1.52V25.552z M128.465,28.206h0.677
				c1.08,0,1.387-0.156,1.387-0.713c0-0.566-0.28-0.699-1.477-0.699h-0.587V28.206z"/>
			<path fill="#FFFFFF" d="M137.98,27.358h-1.46c-0.075-0.467-0.38-0.676-0.99-0.676c-0.534,0-0.837,0.186-0.837,0.518
				c0,0.223,0.17,0.377,0.548,0.504l0.664,0.209c1.177,0.367,1.595,0.588,1.878,0.967c0.213,0.27,0.333,0.639,0.333,1.021
				c0,1.189-0.932,1.902-2.47,1.902c-1.729,0-2.689-0.787-2.689-2.195c0-0.037,0-0.09,0-0.152h1.489
				c0.012,0.803,0.343,1.098,1.214,1.098c0.575,0,0.91-0.211,0.91-0.594c0-0.277-0.152-0.414-0.614-0.572l-0.831-0.287
				c-1.111-0.369-1.419-0.537-1.688-0.941c-0.172-0.246-0.269-0.564-0.269-0.898c0-1.127,0.921-1.828,2.367-1.828
				C137.082,25.433,137.944,26.108,137.98,27.358z"/>
			<path fill="#FFFFFF" d="M138.876,28.612c0-1.893,1.254-3.18,3.081-3.18c1.831,0,3.082,1.287,3.082,3.18
				c0,1.906-1.251,3.191-3.082,3.191C140.13,31.804,138.876,30.519,138.876,28.612z M140.422,28.612
				c0,1.141,0.642,1.955,1.535,1.941c0.898,0,1.537-0.801,1.537-1.941c0-1.129-0.639-1.941-1.537-1.941
				C141.063,26.671,140.422,27.483,140.422,28.612z"/>
			<path fill="#FFFFFF" d="M150.762,27.358h-1.461c-0.075-0.467-0.384-0.676-0.995-0.676c-0.53,0-0.832,0.186-0.832,0.518
				c0,0.223,0.169,0.377,0.548,0.504l0.666,0.209c1.179,0.367,1.596,0.588,1.875,0.967c0.209,0.27,0.332,0.639,0.332,1.021
				c0,1.189-0.932,1.902-2.467,1.902c-1.732,0-2.689-0.787-2.689-2.195c0-0.037,0-0.09,0-0.152h1.483
				c0.017,0.803,0.349,1.098,1.217,1.098c0.581,0,0.91-0.211,0.91-0.594c0-0.277-0.146-0.414-0.616-0.572l-0.831-0.287
				c-1.105-0.369-1.415-0.537-1.685-0.941c-0.17-0.246-0.269-0.564-0.269-0.898c0-1.127,0.921-1.828,2.37-1.828
				C149.866,25.433,150.727,26.108,150.762,27.358z"/>
			<path fill="#FFFFFF" d="M156.749,26.759h3.255v-3.268h1.572v8.189h-1.572v-3.607h-3.255v3.607h-1.567v-8.189h1.567V26.759z"/>
			<path fill="#FFFFFF" d="M163.012,25.165l1.561-2.008h1.865l-2.283,2.008H163.012z M164.755,31.681h-1.521v-6.129h1.521V31.681z"
				/>
			<path fill="#FFFFFF" d="M166.228,25.552h1.843c1.006,0,1.521,0.076,2.014,0.309c1.009,0.467,1.595,1.498,1.595,2.779
				c0,1.215-0.564,2.258-1.456,2.684c-0.583,0.283-1.045,0.357-2.397,0.357h-1.598V25.552z M167.752,30.442h0.535
				c0.667,0,0.986-0.074,1.256-0.271c0.384-0.27,0.59-0.82,0.59-1.51c0-0.76-0.206-1.314-0.613-1.607
				c-0.32-0.221-0.541-0.26-1.508-0.26h-0.26V30.442z"/>
			<path fill="#FFFFFF" d="M172.763,25.552h2.123c1.08,0,1.544,0.066,2.001,0.287c0.639,0.295,1.007,0.941,1.007,1.73
				c0,0.85-0.355,1.383-1.144,1.695l1.438,2.416h-1.731l-1.141-2.234h-1.03v2.234h-1.522V25.552z M174.285,28.206h0.67
				c1.082,0,1.389-0.156,1.389-0.713c0-0.566-0.279-0.699-1.471-0.699h-0.588V28.206z"/>
			<path fill="#FFFFFF" d="M180.681,31.681h-1.524v-6.129h1.524V31.681z"/>
			<path fill="#FFFFFF" d="M187.233,27.728h-1.398c-0.175-0.723-0.513-1.045-1.116-1.045c-0.876,0-1.412,0.74-1.412,1.957
				c0,1.188,0.555,1.914,1.462,1.914c0.708,0,1.066-0.418,1.131-1.344h1.409c-0.014,0.863-0.186,1.363-0.642,1.842
				c-0.478,0.52-1.077,0.752-1.898,0.752c-1.82,0-3.013-1.25-3.013-3.156c0-1.928,1.184-3.215,2.963-3.215
				C186.225,25.433,187.1,26.218,187.233,27.728z"/>
			<path fill="#FFFFFF" d="M187.982,28.612c0-1.893,1.254-3.18,3.082-3.18c1.826,0,3.08,1.287,3.08,3.18
				c0,1.906-1.254,3.191-3.08,3.191C189.236,31.804,187.982,30.519,187.982,28.612z M189.528,28.612
				c0,1.141,0.638,1.955,1.536,1.941c0.893,0,1.535-0.801,1.535-1.941c0-1.129-0.643-1.941-1.535-1.941
				C190.166,26.671,189.528,27.483,189.528,28.612z"/>
			<path fill="#FFFFFF" d="M199.863,27.358h-1.462c-0.073-0.467-0.378-0.676-0.994-0.676c-0.525,0-0.833,0.186-0.833,0.518
				c0,0.223,0.172,0.377,0.553,0.504l0.666,0.209c1.174,0.367,1.594,0.588,1.877,0.967c0.211,0.27,0.33,0.639,0.33,1.021
				c0,1.189-0.933,1.902-2.466,1.902c-1.732,0-2.688-0.787-2.688-2.195c0-0.037,0-0.09,0-0.152h1.483
				c0.013,0.803,0.343,1.098,1.214,1.098c0.577,0,0.912-0.211,0.912-0.594c0-0.277-0.148-0.414-0.616-0.572l-0.831-0.287
				c-1.11-0.369-1.416-0.537-1.683-0.941c-0.177-0.246-0.274-0.564-0.274-0.898c0-1.127,0.922-1.828,2.375-1.828
				C198.967,25.433,199.829,26.108,199.863,27.358z"/>
		</g>
		<g>
			<path fill="#FFFFFF" d="M89.648,2.339h-0.806c-0.04-0.549-0.395-0.862-0.951-0.862c-0.499,0-0.879,0.298-0.879,0.693
				c0,0.354,0.105,0.436,1.217,0.902c0.604,0.25,0.806,0.355,1.016,0.5c0.129,0.097,0.242,0.21,0.331,0.339
				c0.146,0.217,0.226,0.507,0.226,0.814c0,0.967-0.726,1.596-1.846,1.596c-1.217,0-1.893-0.637-1.95-1.838h0.806
				c0.057,0.733,0.459,1.112,1.16,1.112c0.573,0,0.976-0.299,0.976-0.734c0-0.234-0.113-0.428-0.346-0.581
				c-0.186-0.128-0.25-0.161-0.887-0.435c-0.685-0.29-1.007-0.484-1.225-0.734c-0.202-0.241-0.306-0.54-0.306-0.87
				c0-0.871,0.718-1.491,1.733-1.491c0.726,0,1.313,0.33,1.572,0.87C89.6,1.847,89.625,1.984,89.648,2.339z"/>
			<path fill="#FFFFFF" d="M91.518,3.822h1.661v0.652h-1.661v1.089h1.926v0.662h-2.732V2.21h2.644v0.653h-1.838V3.822z"/>
			<path fill="#FFFFFF" d="M97.579,3.515H96.83c-0.121-0.49-0.396-0.725-0.855-0.725c-0.652,0-1.063,0.556-1.063,1.443
				c0,0.869,0.411,1.409,1.072,1.409c0.548,0,0.847-0.322,0.895-0.942h0.757C97.611,5.7,96.99,6.305,96,6.305
				c-1.161,0-1.91-0.806-1.91-2.064c0-1.272,0.749-2.111,1.885-2.111C96.91,2.129,97.482,2.613,97.579,3.515z"/>
			<path fill="#FFFFFF" d="M98.506,2.21h1.161c0.685,0,0.975,0.033,1.266,0.153c0.435,0.178,0.692,0.589,0.692,1.096
				c0,0.548-0.258,0.903-0.798,1.105l1.039,1.661h-0.919l-0.894-1.564h-0.741v1.564h-0.806V2.21z M99.313,4.007h0.395
				c0.862,0,1.096-0.12,1.096-0.58c0-0.452-0.217-0.565-1.136-0.565h-0.354V4.007z"/>
			<path fill="#FFFFFF" d="M103.438,3.822h1.661v0.652h-1.661v1.089h1.926v0.662h-2.731V2.21h2.643v0.653h-1.837V3.822z"/>
			<path fill="#FFFFFF" d="M105.849,2.21h3.03v0.653h-1.137v3.362h-0.798V2.863h-1.096V2.21z"/>
			<path fill="#FFFFFF" d="M110.206,2.203h0.902l1.475,4.022h-0.878l-0.298-0.912h-1.499l-0.299,0.912h-0.87L110.206,2.203z
				 M110.102,4.693h1.111l-0.556-1.733L110.102,4.693z"/>
			<path fill="#FFFFFF" d="M113.309,2.21h1.16c0.687,0,0.977,0.033,1.266,0.153c0.436,0.178,0.694,0.589,0.694,1.096
				c0,0.548-0.259,0.903-0.799,1.105l1.04,1.661h-0.919l-0.894-1.564h-0.742v1.564h-0.807V2.21z M114.115,4.007h0.395
				c0.862,0,1.097-0.12,1.097-0.58c0-0.452-0.218-0.565-1.138-0.565h-0.354V4.007z"/>
			<path fill="#FFFFFF" d="M117.976,1.968l1.347-1.209h-1.032l-0.936,1.209H117.976z M118.25,2.21h-0.807v4.015h0.807V2.21z"/>
			<path fill="#FFFFFF" d="M120.458,2.203h0.902l1.475,4.022h-0.878l-0.299-0.912h-1.498l-0.299,0.912h-0.87L120.458,2.203z
				 M120.353,4.693h1.112l-0.556-1.733L120.353,4.693z"/>
			<path fill="#FFFFFF" d="M125.575,2.21h1.008c0.766,0,1.088,0.049,1.427,0.209c0.652,0.314,1.04,0.992,1.04,1.814
				c0,0.797-0.388,1.482-1.008,1.772c-0.379,0.178-0.686,0.219-1.571,0.219h-0.896V2.21z M126.381,5.563h0.331
				c0.54,0,0.782-0.04,0.999-0.177c0.331-0.202,0.517-0.621,0.517-1.152c0-0.565-0.202-0.992-0.564-1.209
				c-0.233-0.138-0.378-0.162-1.104-0.162h-0.178V5.563z"/>
			<path fill="#FFFFFF" d="M130.726,3.822h1.66v0.652h-1.66v1.089h1.927v0.662h-2.732V2.21h2.644v0.653h-1.838V3.822z"/>
			<path fill="#FFFFFF" d="M135.336,3.54c0-1.668,0.927-2.789,2.313-2.789c1.387,0,2.322,1.12,2.322,2.789
				c-0.009,1.668-0.936,2.781-2.322,2.781C136.263,6.321,135.336,5.2,135.336,3.54z M136.206,3.54c0,1.265,0.557,2.063,1.442,2.063
				c0.887,0,1.443-0.798,1.443-2.063c0-1.274-0.557-2.071-1.443-2.071C136.763,1.469,136.206,2.266,136.206,3.54z"/>
			<path fill="#FFFFFF" d="M140.856,2.21h1.152c0.605,0,0.927,0.033,1.193,0.129c0.403,0.137,0.636,0.483,0.636,0.919
				c0,0.378-0.168,0.636-0.515,0.813c0.491,0.194,0.717,0.493,0.717,0.968c0,0.523-0.307,0.935-0.806,1.079
				c-0.299,0.089-0.517,0.106-1.249,0.106h-1.129V2.21z M141.631,3.798h0.467c0.71,0,0.927-0.113,0.927-0.476
				c0-0.362-0.193-0.459-0.935-0.459h-0.459V3.798z M141.631,5.563h0.499c0.888,0,1.089-0.097,1.089-0.548
				c0-0.443-0.234-0.556-1.08-0.556h-0.508V5.563z"/>
			<path fill="#FFFFFF" d="M144.879,2.21h1.16c0.686,0,0.976,0.033,1.266,0.153c0.436,0.178,0.692,0.589,0.692,1.096
				c0,0.548-0.257,0.903-0.798,1.105l1.04,1.661h-0.919l-0.895-1.564h-0.741v1.564h-0.806V2.21z M145.685,4.007h0.395
				c0.862,0,1.097-0.12,1.097-0.58c0-0.452-0.218-0.565-1.137-0.565h-0.354V4.007z"/>
			<path fill="#FFFFFF" d="M150.109,2.203h0.902l1.475,4.022h-0.879l-0.298-0.912h-1.499l-0.298,0.912h-0.87L150.109,2.203z
				 M150.004,4.693h1.112l-0.556-1.733L150.004,4.693z"/>
			<path fill="#FFFFFF" d="M156.105,3.338h-0.773c-0.057-0.379-0.29-0.548-0.741-0.548c-0.404,0-0.669,0.169-0.669,0.443
				c0,0.266,0.088,0.322,0.91,0.588c0.709,0.234,0.991,0.387,1.177,0.629c0.129,0.177,0.202,0.403,0.202,0.646
				c0,0.741-0.604,1.208-1.557,1.208c-1.096,0-1.66-0.492-1.66-1.451h0.782c0.032,0.573,0.282,0.79,0.878,0.79
				c0.468,0,0.742-0.184,0.742-0.507c0-0.314-0.105-0.387-0.943-0.662c-0.701-0.24-0.902-0.337-1.096-0.571
				c-0.153-0.178-0.234-0.388-0.234-0.628c0-0.702,0.58-1.146,1.483-1.146C155.541,2.129,156.058,2.541,156.105,3.338z"/>
			<path fill="#FFFFFF" d="M159.249,0.848h1.079c0.807,0,1.161,0.04,1.508,0.153c0.604,0.21,0.976,0.782,0.976,1.508
				c0,0.717-0.363,1.281-0.952,1.475c-0.33,0.112-0.66,0.144-1.426,0.144h-0.339v2.097h-0.846V0.848z M160.078,3.418h0.355h0.266
				c0.508,0,0.822-0.08,1.008-0.257c0.161-0.162,0.249-0.379,0.249-0.653c0-0.387-0.169-0.694-0.451-0.815
				c-0.233-0.104-0.468-0.128-1.079-0.128h-0.348V3.418z"/>
			<path fill="#FFFFFF" d="M163.513,2.21h0.806v2.321c0,0.872,0.185,1.112,0.87,1.112c0.685,0,0.871-0.241,0.871-1.112V2.21h0.806
				v2.33c0,0.588-0.033,0.766-0.153,1.006c-0.241,0.484-0.806,0.758-1.523,0.758c-0.726,0-1.281-0.274-1.522-0.758
				c-0.13-0.241-0.153-0.418-0.153-1.006V2.21z M164.696,1.968l0.936-1.209h1.032l-1.347,1.209H164.696z"/>
			<path fill="#FFFFFF" d="M167.938,2.21h1.152c0.604,0,0.927,0.033,1.192,0.129c0.402,0.137,0.637,0.483,0.637,0.919
				c0,0.378-0.169,0.636-0.516,0.813c0.491,0.194,0.718,0.493,0.718,0.968c0,0.523-0.307,0.935-0.807,1.079
				c-0.298,0.089-0.516,0.106-1.25,0.106h-1.127V2.21z M168.71,3.798h0.468c0.709,0,0.928-0.113,0.928-0.476
				c0-0.362-0.193-0.459-0.936-0.459h-0.46V3.798z M168.71,5.563h0.5c0.887,0,1.089-0.097,1.089-0.548
				c0-0.443-0.234-0.556-1.081-0.556h-0.508V5.563z"/>
			<path fill="#FFFFFF" d="M171.958,2.21h0.806v3.353h1.863v0.662h-2.669V2.21z"/>
			<path fill="#FFFFFF" d="M176.174,6.225h-0.807V2.21h0.807V6.225z"/>
			<path fill="#FFFFFF" d="M180.55,3.515h-0.749c-0.121-0.49-0.395-0.725-0.854-0.725c-0.652,0-1.063,0.556-1.063,1.443
				c0,0.869,0.411,1.409,1.072,1.409c0.548,0,0.846-0.322,0.895-0.942h0.757c-0.024,0.999-0.645,1.604-1.636,1.604
				c-1.161,0-1.91-0.806-1.91-2.064c0-1.272,0.749-2.111,1.886-2.111C179.881,2.129,180.453,2.613,180.55,3.515z"/>
			<path fill="#FFFFFF" d="M182.43,2.203h0.902l1.475,4.022h-0.878l-0.298-0.912h-1.499l-0.298,0.912h-0.871L182.43,2.203z
				 M182.325,4.693h1.112l-0.557-1.733L182.325,4.693z"/>
			<path fill="#FFFFFF" d="M188.426,3.338h-0.773c-0.057-0.379-0.29-0.548-0.741-0.548c-0.403,0-0.669,0.169-0.669,0.443
				c0,0.266,0.088,0.322,0.91,0.588c0.71,0.234,0.991,0.387,1.178,0.629c0.128,0.177,0.201,0.403,0.201,0.646
				c0,0.741-0.604,1.208-1.557,1.208c-1.096,0-1.66-0.492-1.66-1.451h0.783c0.031,0.573,0.281,0.79,0.877,0.79
				c0.468,0,0.742-0.184,0.742-0.507c0-0.314-0.104-0.387-0.943-0.662c-0.701-0.24-0.902-0.337-1.096-0.571
				c-0.153-0.178-0.234-0.388-0.234-0.628c0-0.702,0.581-1.146,1.483-1.146C187.862,2.129,188.378,2.541,188.426,3.338z"/>
		</g>
	</g>
</g>
</svg>
